<svg width="38" height="30" viewBox="0 0 38 30" fill="none" xmlns="http://www.w3.org/2000/svg">
<path d="M37.1972 12.2313C36.7503 9.29728 35.2966 6.23642 33.3136 4.03672C30.9386 1.40976 28.0366 0.184028 25.1346 0.57945C18.0816 1.53393 16.592 7.65181 15.2708 13.0367L15.2663 13.0508L15.2547 13.1059C14.0799 17.8749 13.0661 21.9922 8.75741 22.5686C5.91518 22.9616 3.73248 19.1445 3.3093 16.3669L3.2497 15.9757L3.24318 15.9767C2.79376 12.2825 3.70199 8.7417 5.93872 5.42544L5.70432 9.71091L7.60032 8.97499L8.15585 0.404297L0.12793 4.15587L0.195877 6.0469L4.2262 4.12523C1.61012 7.97293 0.538871 12.2391 1.14787 16.5428L1.18163 16.7645C1.65349 19.8615 3.00064 23.0987 4.78989 25.4281C7.009 28.3456 9.82742 29.8109 12.7195 29.5704C15.895 29.3067 18.292 27.8742 20.0504 25.1844C21.5697 22.8515 22.3861 19.9785 23.1764 17.1962L23.18 17.1756C24.5801 12.2656 25.7878 8.01865 30.1206 7.64538C31.7762 7.51991 32.9414 8.55658 33.6241 9.44662C34.3908 10.4506 34.9785 11.8555 35.1831 13.1987C35.2079 13.3617 35.2253 13.5191 35.2426 13.6766C35.529 17.0888 33.4999 21.5875 31.3454 24.611L31.5854 20.2314L29.6894 20.9672L29.1338 29.538L37.1608 25.7798L37.0928 23.8889L33.1368 25.7725C35.9428 21.8019 37.9479 17.1579 37.1972 12.2313ZM29.9668 5.54066C27.343 5.74694 25.353 7.00412 23.8919 9.36834C22.6052 11.4323 21.8613 14.0808 21.1435 16.6386L21.1308 16.6872C20.3492 19.3949 19.6128 21.9621 18.3458 23.9364C16.9437 26.1182 15.1053 27.2321 12.5617 27.4396C10.0396 27.6571 8.09493 26.0586 6.82703 24.5239C7.54175 24.7486 8.29981 24.8198 9.07219 24.7223C11.6666 24.3669 13.588 23.0535 14.9523 20.7108C16.1412 18.6617 16.7692 16.0841 17.3766 13.59C18.6417 8.40694 19.8358 3.50162 25.456 2.73207C27.6116 2.43035 29.85 3.41691 31.7499 5.50916C31.8141 5.57946 31.8781 5.64975 31.9422 5.72004C31.2801 5.53405 30.6303 5.47294 29.9668 5.54066Z" fill="#1B1B1B"/>
</svg>
