<svg width="198" height="46" viewBox="0 0 198 46" fill="none" xmlns="http://www.w3.org/2000/svg">
<path d="M64.1151 28.5625C63.0933 28.5625 62.0866 28.3955 61.1027 28.0691C60.1263 27.7503 59.2862 27.2721 58.5898 26.6649L59.7554 24.6989C60.4972 25.2303 61.2238 25.625 61.9428 25.9058C62.6467 26.1715 63.3582 26.3081 64.0545 26.3081C64.6752 26.3081 65.1596 26.1943 65.5229 25.959C65.8862 25.7237 66.0527 25.3973 66.0527 24.9418C66.0527 24.5092 65.8483 24.1828 65.4245 23.9854C65.0006 23.7881 64.3194 23.5528 63.3809 23.2795C62.5862 23.0518 61.9126 22.8469 61.3525 22.6495C60.7924 22.4522 60.3458 22.2169 59.9901 21.9588C59.6495 21.7083 59.3997 21.4123 59.2483 21.0783C59.097 20.7367 59.0137 20.3496 59.0137 19.8714C59.0137 19.249 59.1348 18.6949 59.377 18.1863C59.6116 17.6929 59.9522 17.2603 60.3837 16.9111C60.8151 16.5619 61.3222 16.2887 61.9126 16.1141C62.5029 15.9319 63.1311 15.8333 63.8199 15.8333C64.7282 15.8333 65.591 15.9547 66.3933 16.228C67.188 16.4936 67.9298 16.9187 68.5883 17.5183L67.3318 19.416C66.7112 18.9529 66.1133 18.5962 65.5305 18.3912C64.9401 18.1635 64.3649 18.0724 63.7972 18.0724C63.2674 18.0724 62.8284 18.1863 62.4651 18.3912C62.1018 18.619 61.9353 18.9681 61.9353 19.4463C61.9353 19.674 61.9807 19.841 62.0564 19.9777C62.1396 20.1219 62.2834 20.2433 62.4575 20.3572C62.6392 20.471 62.8889 20.5621 63.1841 20.6684C63.4944 20.7671 63.8729 20.8733 64.3194 20.9796C65.1596 21.2073 65.8786 21.4123 66.4766 21.64C67.0745 21.8677 67.5665 22.103 67.9449 22.3838C68.3233 22.6647 68.6034 22.9835 68.785 23.3554C68.9667 23.7198 69.05 24.1524 69.05 24.6762C69.05 25.8679 68.6034 26.8243 67.7178 27.515C66.8399 28.2209 65.6364 28.5625 64.1151 28.5625Z" fill="#1B1B1B"/>
<path d="M83.6724 23.1049H73.9238C74.0903 24.0158 74.5444 24.7521 75.2635 25.2986C75.9901 25.8299 76.8832 26.0956 77.9504 26.0956C79.3203 26.0956 80.4405 25.6478 81.3185 24.7293L82.8777 26.5283C82.3176 27.2038 81.6213 27.7048 80.766 28.0464C79.9107 28.3879 78.9495 28.5625 77.8823 28.5625C76.5123 28.5625 75.3089 28.2968 74.2719 27.7427C73.235 27.1962 72.4251 26.4372 71.865 25.4656C71.2898 24.494 71.0098 23.3858 71.0098 22.1637C71.0098 20.9417 71.2898 19.8638 71.8348 18.877C72.3797 17.9055 73.1517 17.1464 74.1281 16.5999C75.1045 16.0534 76.2096 15.7801 77.4281 15.7801C78.6467 15.7801 79.7215 16.0458 80.6752 16.5771C81.6213 17.1085 82.363 17.8675 82.9155 18.8391C83.4453 19.8107 83.7103 20.9417 83.7103 22.2093C83.7103 22.4446 83.7027 22.7254 83.6724 23.1049ZM75.0667 18.9605C74.4233 19.5071 74.0297 20.2509 73.8935 21.1618H80.9476C80.8265 20.2585 80.4405 19.5374 79.8047 18.9681C79.1614 18.4064 78.3818 18.1256 77.4206 18.1256C76.4972 18.118 75.71 18.3988 75.0667 18.9605Z" fill="#1B1B1B"/>
<path d="M88.5847 27.72C87.5629 27.1735 86.7681 26.4144 86.1929 25.4428C85.6177 24.4712 85.3301 23.363 85.3301 22.141C85.3301 20.9113 85.6253 19.8107 86.1929 18.8391C86.7681 17.8675 87.5629 17.1085 88.5847 16.5771C89.6065 16.0306 90.7721 15.7574 92.0663 15.7574C93.2925 15.7574 94.3597 16.0078 95.2831 16.5012C96.2065 17.0098 96.9028 17.7233 97.3645 18.6493L95.1241 19.9549C94.7608 19.378 94.3294 18.9378 93.7845 18.6645C93.2546 18.3685 92.6643 18.2319 92.0209 18.2319C90.931 18.2319 90.0303 18.581 89.3188 19.3021C88.6074 20.008 88.2441 20.9568 88.2441 22.141C88.2441 23.3175 88.5922 24.2739 89.3037 24.9798C90.0076 25.6933 90.9083 26.0501 92.0133 26.0501C92.6416 26.0501 93.2319 25.9058 93.7769 25.6174C94.3067 25.3214 94.7533 24.9039 95.1166 24.327L97.3569 25.6326C96.8801 26.5738 96.1686 27.2873 95.2452 27.7959C94.3218 28.3044 93.2546 28.5549 92.0436 28.5549C90.7569 28.5321 89.6065 28.2665 88.5847 27.72Z" fill="#1B1B1B"/>
<path d="M107.099 15.9319V18.7176C106.849 18.6797 106.622 18.6493 106.425 18.6493C105.29 18.6493 104.412 18.9909 103.769 19.6437C103.125 20.304 102.822 21.2604 102.822 22.5129V28.5701H99.916V16.0685H102.686V17.8903C103.511 16.5923 104.987 15.9319 107.099 15.9319Z" fill="#1B1B1B"/>
<path d="M121.336 23.1049H111.588C111.754 24.0158 112.208 24.7521 112.928 25.2986C113.654 25.8299 114.547 26.0956 115.614 26.0956C116.984 26.0956 118.105 25.6478 118.983 24.7293L120.542 26.5283C119.982 27.2038 119.285 27.7048 118.43 28.0464C117.575 28.3879 116.614 28.5625 115.546 28.5625C114.176 28.5625 112.973 28.2968 111.936 27.7427C110.899 27.1962 110.089 26.4372 109.529 25.4656C108.954 24.494 108.674 23.3858 108.674 22.1637C108.674 20.9417 108.954 19.8638 109.499 18.877C110.044 17.9055 110.816 17.1464 111.792 16.5999C112.769 16.0534 113.874 15.7801 115.092 15.7801C116.311 15.7801 117.386 16.0458 118.339 16.5771C119.285 17.1085 120.027 17.8675 120.58 18.8391C121.109 19.8107 121.374 20.9417 121.374 22.2093C121.397 22.4446 121.374 22.7254 121.336 23.1049ZM112.746 18.9605C112.103 19.5071 111.709 20.2509 111.573 21.1618H118.627C118.506 20.2585 118.12 19.5374 117.484 18.9681C116.841 18.4064 116.061 18.1256 115.1 18.1256C114.169 18.118 113.389 18.3988 112.746 18.9605Z" fill="#1B1B1B"/>
<path d="M131.811 27.7199C131.471 28.0008 131.054 28.2133 130.562 28.35C130.071 28.4866 129.556 28.5549 129.003 28.5549C127.633 28.5549 126.581 28.1906 125.84 27.477C125.098 26.7635 124.719 25.7236 124.719 24.3422V18.3305H122.676V16.0154H124.719V13.169H127.626V16.0154H130.956V18.3457H127.626V24.289C127.626 24.8887 127.777 25.3593 128.072 25.6781C128.368 25.9969 128.799 26.1563 129.359 26.1563C130.018 26.1563 130.547 25.9893 130.979 25.6402L131.811 27.7199Z" fill="#1B1B1B"/>
<path d="M139.37 28.4907C138.391 28.4907 137.459 28.3426 136.573 28.0465C135.687 27.7504 134.995 27.3763 134.498 26.9243L135.034 25.9892C135.532 26.41 136.169 26.7607 136.946 27.0412C137.738 27.3218 138.562 27.462 139.417 27.462C140.645 27.462 141.546 27.2594 142.121 26.8542C142.712 26.449 143.007 25.8879 143.007 25.1709C143.007 24.6566 142.844 24.2514 142.517 23.9552C142.207 23.6591 141.818 23.4409 141.352 23.3006C140.886 23.1603 140.241 23.0123 139.417 22.8564C138.453 22.685 137.676 22.498 137.086 22.2953C136.495 22.0927 135.99 21.7654 135.57 21.3134C135.151 20.8614 134.941 20.238 134.941 19.4431C134.941 18.4768 135.337 17.6819 136.13 17.0585C136.938 16.4195 138.08 16.1 139.557 16.1C140.334 16.1 141.103 16.2091 141.865 16.4273C142.626 16.6455 143.248 16.9338 143.73 17.2923L143.193 18.2274C142.696 17.869 142.129 17.5962 141.492 17.4092C140.854 17.2222 140.202 17.1286 139.533 17.1286C138.399 17.1286 137.544 17.339 136.969 17.7599C136.394 18.1807 136.107 18.734 136.107 19.4198C136.107 19.9653 136.27 20.3939 136.596 20.7056C136.922 21.0017 137.319 21.2277 137.785 21.3836C138.267 21.5238 138.935 21.6797 139.79 21.8511C140.738 22.0226 141.499 22.2096 142.074 22.4122C142.665 22.5993 143.162 22.911 143.566 23.3474C143.97 23.7838 144.173 24.3838 144.173 25.1475C144.173 26.1606 143.753 26.9711 142.914 27.5789C142.074 28.1868 140.893 28.4907 139.37 28.4907Z" fill="#1B1B1B"/>
<path d="M164.589 16.1935L159.973 28.3972H158.877L154.774 17.8066L150.648 28.3972H149.576L144.96 16.1935H146.079L150.135 27.088L154.285 16.1935H155.287L159.413 27.0646L163.516 16.1935H164.589Z" fill="#1B1B1B"/>
<path d="M171.038 16.1C172.546 16.1 173.704 16.4896 174.512 17.2689C175.32 18.0326 175.724 19.1626 175.724 20.6588V28.3972H174.605V26.223C174.217 26.9399 173.649 27.501 172.903 27.9062C172.157 28.2959 171.264 28.4907 170.223 28.4907C168.87 28.4907 167.798 28.1712 167.006 27.5322C166.228 26.8931 165.84 26.0515 165.84 25.0073C165.84 23.9942 166.197 23.1759 166.912 22.5525C167.643 21.9135 168.801 21.594 170.386 21.594H174.559V20.6121C174.559 19.4743 174.248 18.6093 173.626 18.017C173.02 17.4248 172.126 17.1286 170.945 17.1286C170.137 17.1286 169.36 17.2689 168.614 17.5495C167.884 17.83 167.262 18.2041 166.749 18.6716L166.166 17.83C166.772 17.2845 167.503 16.8637 168.358 16.5675C169.212 16.2558 170.106 16.1 171.038 16.1ZM170.386 27.5322C171.396 27.5322 172.251 27.2984 172.95 26.8308C173.665 26.3632 174.201 25.6852 174.559 24.7969V22.5057H170.409C169.212 22.5057 168.342 22.7239 167.798 23.1603C167.27 23.5967 167.006 24.1968 167.006 24.9605C167.006 25.7554 167.301 26.3866 167.891 26.8542C168.482 27.3062 169.313 27.5322 170.386 27.5322Z" fill="#1B1B1B"/>
<path d="M186.634 16.1C187.769 16.1 188.795 16.3649 189.712 16.8949C190.629 17.4248 191.343 18.1573 191.856 19.0925C192.385 20.0276 192.649 21.0952 192.649 22.2953C192.649 23.4954 192.385 24.5709 191.856 25.5216C191.343 26.4567 190.629 27.1893 189.712 27.7192C188.795 28.2335 187.769 28.4907 186.634 28.4907C185.562 28.4907 184.591 28.2413 183.72 27.7426C182.85 27.2282 182.174 26.5191 181.692 25.6151V32.9326H180.527V16.1935H181.646V19.0691C182.127 18.1339 182.803 17.4092 183.674 16.8949C184.56 16.3649 185.546 16.1 186.634 16.1ZM186.564 27.4386C187.497 27.4386 188.336 27.2204 189.082 26.784C189.828 26.3476 190.411 25.7398 190.831 24.9605C191.266 24.1812 191.483 23.2928 191.483 22.2953C191.483 21.2978 191.266 20.4095 190.831 19.6302C190.411 18.8509 189.828 18.243 189.082 17.8066C188.336 17.3702 187.497 17.152 186.564 17.152C185.632 17.152 184.793 17.3702 184.047 17.8066C183.316 18.243 182.734 18.8509 182.298 19.6302C181.879 20.4095 181.669 21.2978 181.669 22.2953C181.669 23.2928 181.879 24.1812 182.298 24.9605C182.734 25.7398 183.316 26.3476 184.047 26.784C184.793 27.2204 185.632 27.4386 186.564 27.4386Z" fill="#1B1B1B"/>
<path d="M47.2096 19.8935C46.7095 16.6017 45.0832 13.1676 42.8647 10.6996C40.2077 7.75228 36.9611 6.37708 33.7145 6.82072C25.824 7.8916 24.1574 14.7556 22.6794 20.7972L22.6744 20.8129L22.6614 20.8748C21.3471 26.2253 20.2128 30.8447 15.3925 31.4915C12.2128 31.9324 9.77087 27.6498 9.29744 24.5335L9.23076 24.0946L9.22346 24.0957C8.72067 19.951 9.73676 15.9784 12.2391 12.2577L11.9769 17.0658L14.098 16.2401L14.7195 6.62421L5.73828 10.8333L5.8143 12.9549L10.3232 10.7989C7.39648 15.1158 6.19802 19.9023 6.87933 24.7308L6.91711 24.9796C7.445 28.4543 8.95213 32.0863 10.9538 34.6996C13.4365 37.973 16.5896 39.617 19.8251 39.3472C23.3777 39.0513 26.0593 37.4441 28.0265 34.4263C29.7262 31.8089 30.6396 28.5855 31.5238 25.4639L31.5277 25.4408C33.0942 19.932 34.4452 15.1671 39.2926 14.7483C41.1447 14.6076 42.4483 15.7707 43.2121 16.7693C44.0699 17.8957 44.7273 19.4719 44.9562 20.9789C44.984 21.1617 45.0034 21.3384 45.0228 21.5151C45.3432 25.3434 43.0732 30.3907 40.6628 33.783L40.9313 28.8692L38.8101 29.6948L38.1886 39.3108L47.1688 35.0943L47.0928 32.9727L42.6669 35.0861C45.8061 30.6313 48.0493 25.4209 47.2096 19.8935ZM39.1205 12.387C36.1851 12.6184 33.9588 14.0289 32.3242 16.6814C30.8847 18.9971 30.0524 21.9686 29.2494 24.8384L29.2352 24.8928C28.3608 27.9307 27.537 30.8111 26.1195 33.0261C24.5509 35.4739 22.4942 36.7237 19.6486 36.9565C16.827 37.2005 14.6514 35.4071 13.2329 33.6852C14.0325 33.9373 14.8806 34.0173 15.7447 33.9078C18.6471 33.5091 20.7968 32.0355 22.3231 29.4071C23.6531 27.1081 24.3557 24.2162 25.0352 21.4179C26.4505 15.6028 27.7864 10.0992 34.074 9.23586C36.4856 8.89733 38.9899 10.0042 41.1154 12.3516C41.1871 12.4305 41.2588 12.5093 41.3305 12.5882C40.5897 12.3795 39.8628 12.311 39.1205 12.387Z" fill="#1B1B1B"/>
</svg>
